<?xml version="1.0" standalone="no"?>
<!DOCTYPE svg PUBLIC "-//W3C//DTD SVG 20010904//EN"
 "http://www.w3.org/TR/2001/REC-SVG-20010904/DTD/svg10.dtd">
<svg version="1.0" xmlns="http://www.w3.org/2000/svg"
 width="628.000000pt" height="628.000000pt" viewBox="0 0 628.000000 628.000000"
 preserveAspectRatio="xMidYMid meet">
<metadata>
Created by potrace 1.14, written by Peter Selinger 2001-2017
</metadata>
<g transform="translate(0.000000,628.000000) scale(0.100000,-0.100000)"
fill="#000000" stroke="none">
<path d="M0 6234 c0 -14 4 -23 10 -19 13 8 13 45 0 45 -5 0 -10 -12 -10 -26z"/>
<path d="M2879 6226 c-3 -3 -48 -10 -100 -16 -118 -13 -240 -34 -349 -59 -25
-6 -60 -14 -78 -17 -18 -4 -35 -11 -38 -15 -3 -5 -18 -9 -34 -9 -16 0 -32 -4
-35 -10 -3 -5 -15 -10 -26 -10 -10 0 -29 -5 -42 -12 -48 -24 -57 -28 -77 -28
-11 0 -20 -4 -20 -10 0 -5 -9 -10 -20 -10 -11 0 -20 -4 -20 -10 0 -5 -8 -10
-19 -10 -10 0 -29 -8 -42 -18 -27 -21 -59 -36 -86 -41 -5 -1 -1 -6 7 -12 12
-8 10 -9 -7 -4 -15 4 -25 0 -32 -12 -8 -14 -10 -15 -11 -3 0 10 -3 11 -8 4 -4
-6 -17 -16 -30 -23 -12 -7 -20 -16 -17 -22 6 -9 -7 -13 -37 -10 -12 2 -18 -5
-18 -18 0 -15 -6 -21 -22 -21 -14 0 -31 -12 -43 -30 -13 -20 -27 -29 -40 -28
-14 2 -20 -3 -20 -17 0 -15 -6 -19 -24 -17 -17 1 -22 -2 -18 -12 3 -8 -1 -20
-9 -26 -8 -7 -14 -9 -14 -4 0 14 -87 -83 -125 -140 -43 -65 -98 -212 -90 -242
2 -12 2 -24 -2 -28 -4 -3 -5 -33 -4 -67 1 -35 -2 -66 -9 -75 -8 -9 -9 -14 -2
-14 6 0 14 5 17 10 13 21 23 -1 15 -30 -7 -23 -5 -30 5 -30 8 0 19 -18 25 -40
6 -21 15 -42 21 -45 5 -4 7 -15 4 -26 -4 -12 -2 -19 7 -19 8 0 19 -5 26 -12
14 -14 -21 -68 -44 -68 -8 0 -14 -7 -14 -15 0 -21 3 -19 40 15 38 36 41 36 59
9 11 -19 10 -24 -13 -45 -14 -13 -30 -24 -36 -24 -5 0 -10 -7 -10 -15 0 -8 7
-15 15 -15 8 0 15 5 15 11 0 7 12 23 26 36 l26 24 25 -23 25 -23 -36 -31 c-20
-17 -36 -37 -36 -44 0 -7 17 3 37 23 20 21 40 37 44 37 5 0 16 -12 26 -27 13
-19 14 -28 5 -31 -6 -2 -12 -8 -12 -13 0 -5 9 -4 19 3 22 13 51 -3 51 -29 0
-10 6 -12 19 -8 13 4 26 -3 44 -25 16 -19 31 -28 41 -24 9 3 16 1 16 -5 0 -6
7 -11 15 -11 9 0 18 -7 22 -16 3 -8 12 -13 19 -10 7 3 27 -8 45 -25 17 -16 39
-29 48 -29 9 0 30 -9 46 -20 17 -11 40 -20 52 -20 12 0 31 -11 41 -25 11 -14
23 -22 26 -17 9 15 66 0 77 -20 8 -16 13 -17 25 -7 11 9 18 9 26 1 7 -7 20
-12 30 -12 11 0 18 -7 18 -19 0 -25 16 -36 24 -16 6 17 51 20 61 5 3 -5 26
-10 51 -10 24 0 44 -4 44 -10 0 -5 9 -10 20 -10 11 0 20 -7 20 -15 0 -8 5 -15
10 -15 6 0 10 7 10 15 0 17 12 19 26 5 6 -6 34 -11 62 -11 29 -1 52 -6 52 -10
0 -5 14 -9 30 -9 28 0 30 -3 30 -36 0 -22 4 -33 11 -29 5 4 9 19 7 33 -3 24 1
27 33 30 41 3 69 -17 69 -49 0 -11 5 -17 10 -14 6 3 10 15 10 26 0 18 6 20 47
17 44 -3 48 -5 54 -33 l6 -30 4 30 c4 28 7 30 51 33 44 3 46 2 53 -27 9 -44
-1 -53 -59 -51 -100 3 -120 -4 -26 -9 52 -3 106 -4 119 -2 l25 4 -23 8 c-18 7
-22 15 -19 41 3 32 4 33 52 33 46 0 49 -2 52 -27 1 -16 -4 -34 -11 -42 -21
-20 -4 -23 85 -16 85 8 84 13 -2 10 l-58 -2 0 41 0 41 119 0 c66 0 122 4 126
9 3 5 40 9 82 9 48 0 79 4 81 11 6 18 32 13 32 -6 1 -17 1 -17 14 0 7 9 25 17
40 17 14 0 26 5 26 10 0 6 9 10 20 10 16 0 20 -6 18 -22 -2 -13 2 -23 7 -23 6
0 9 9 8 20 -4 27 52 53 77 37 14 -9 22 -7 36 9 10 11 30 19 50 19 18 0 36 5
39 10 3 6 17 10 31 10 13 0 24 5 24 11 0 7 9 9 24 5 15 -4 28 0 36 9 7 8 27
15 44 15 17 0 42 9 56 20 14 11 36 20 50 20 14 0 32 9 40 20 8 11 25 20 37 20
13 0 32 9 42 19 27 27 62 36 72 20 6 -10 9 -8 9 8 0 13 8 24 20 28 11 3 20 11
20 16 0 19 27 8 40 -16 7 -13 17 -22 22 -19 5 4 0 16 -11 28 -21 22 -21 23 -3
39 10 9 26 17 35 17 9 0 17 6 17 13 0 8 11 20 25 27 24 13 28 11 60 -20 44
-42 59 -32 16 12 -37 38 -37 40 -11 63 16 15 22 15 35 5 17 -14 21 0 5 16 -7
7 -4 16 10 29 17 16 25 17 40 7 29 -18 38 -15 12 4 -29 20 -28 31 6 52 16 10
26 24 24 34 -2 9 6 22 17 28 13 6 21 21 21 35 0 14 6 25 13 25 17 0 52 116 48
158 -2 30 -1 33 18 27 12 -4 21 -2 21 4 0 6 -4 11 -10 11 -5 0 -10 9 -10 20 0
11 5 20 12 20 9 0 9 3 0 12 -7 7 -12 27 -12 44 0 18 -4 36 -10 39 -5 3 -10 17
-10 31 0 13 -4 32 -10 42 -5 9 -16 33 -24 52 -21 48 -62 117 -86 143 -11 11
-20 25 -20 30 0 5 -7 7 -15 4 -8 -4 -17 -2 -20 3 -3 4 1 10 7 13 9 3 4 11 -12
25 -14 12 -31 19 -38 17 -9 -3 -11 1 -7 15 5 16 2 20 -19 20 -16 0 -26 6 -26
15 0 8 -9 15 -20 15 -13 0 -18 5 -14 15 4 10 0 15 -15 15 -14 0 -21 6 -21 19
0 14 -5 18 -19 14 -12 -3 -24 3 -34 17 -8 12 -20 19 -26 16 -6 -4 -16 2 -23
14 -7 11 -20 20 -29 20 -9 0 -24 9 -33 19 -10 11 -25 17 -34 14 -9 -4 -13 -2
-9 4 6 10 -68 49 -85 45 -5 -1 -8 5 -8 13 0 10 -10 15 -27 15 -16 0 -39 9 -53
20 -14 11 -33 20 -42 20 -9 0 -20 5 -23 10 -3 6 -17 10 -31 10 -13 0 -24 4
-24 9 0 5 -12 11 -27 14 -26 5 -51 12 -143 38 -108 31 -252 60 -405 80 -87 11
-587 24 -596 15z"/>
<path d="M6 5782 c-8 -13 -5 -281 3 -286 4 -3 9 62 10 144 2 140 0 162 -13
142z"/>
<path d="M1295 5320 c-3 -5 -1 -10 4 -10 6 0 11 5 11 10 0 6 -2 10 -4 10 -3 0
-8 -4 -11 -10z"/>
<path d="M1260 5294 c0 -8 5 -12 10 -9 6 3 10 10 10 16 0 5 -4 9 -10 9 -5 0
-10 -7 -10 -16z"/>
<path d="M4950 5300 c0 -5 5 -10 10 -10 6 0 10 5 10 10 0 6 -4 10 -10 10 -5 0
-10 -4 -10 -10z"/>
<path d="M1260 5253 c0 -13 5 -23 10 -23 13 0 13 11 0 30 -8 12 -10 11 -10 -7z"/>
<path d="M4950 5241 c0 -5 6 -11 14 -14 8 -3 12 -16 10 -34 l-4 -28 9 28 c6
16 7 35 4 43 -6 15 -33 20 -33 5z"/>
<path d="M1300 5200 c0 -5 5 -10 10 -10 6 0 10 5 10 10 0 6 -4 10 -10 10 -5 0
-10 -4 -10 -10z"/>
<path d="M1265 5180 c-3 -5 1 -10 9 -10 9 0 16 5 16 10 0 6 -4 10 -9 10 -6 0
-13 -4 -16 -10z"/>
<path d="M4950 5085 c0 -15 4 -24 10 -20 6 3 10 12 10 20 0 8 -4 17 -10 20 -6
4 -10 -5 -10 -20z"/>
<path d="M1280 5045 c0 -8 5 -15 10 -15 6 0 10 7 10 15 0 8 -4 15 -10 15 -5 0
-10 -7 -10 -15z"/>
<path d="M4930 5030 c0 -11 5 -20 10 -20 6 0 10 9 10 20 0 11 -4 20 -10 20 -5
0 -10 -9 -10 -20z"/>
<path d="M1335 4999 c-4 -6 -13 -8 -21 -5 -19 7 -18 -18 1 -34 12 -10 15 -9
15 5 0 10 8 24 18 31 9 7 12 14 5 14 -6 0 -15 -5 -18 -11z"/>
<path d="M4875 5000 c3 -5 8 -10 11 -10 2 0 4 5 4 10 0 6 -5 10 -11 10 -5 0
-7 -4 -4 -10z"/>
<path d="M4906 4975 c4 -8 12 -15 20 -15 8 0 11 6 8 15 -4 8 -12 15 -20 15 -8
0 -11 -6 -8 -15z"/>
<path d="M1370 4940 c0 -5 5 -10 10 -10 6 0 10 5 10 10 0 6 -4 10 -10 10 -5 0
-10 -4 -10 -10z"/>
<path d="M1340 4914 c0 -8 5 -12 10 -9 6 3 10 10 10 16 0 5 -4 9 -10 9 -5 0
-10 -7 -10 -16z"/>
<path d="M4872 4918 c6 -18 28 -21 28 -4 0 9 -7 16 -16 16 -9 0 -14 -5 -12
-12z"/>
<path d="M4826 4865 c17 -26 29 -31 38 -16 3 5 -5 16 -19 25 -34 22 -38 20
-19 -9z"/>
<path d="M496 4770 c-14 -22 -26 -44 -26 -50 0 -5 -4 -10 -9 -10 -5 0 -11 -8
-14 -17 -6 -18 -37 -74 -47 -83 -6 -5 -81 -158 -110 -225 -10 -22 -27 -61 -39
-87 -12 -26 -21 -52 -21 -58 0 -6 -4 -18 -10 -28 -18 -33 -69 -197 -99 -322
-36 -147 -49 -224 -61 -343 -5 -48 -14 -104 -20 -125 -15 -49 -8 -509 9 -617
34 -223 44 -283 51 -315 5 -19 14 -57 20 -85 19 -78 51 -188 61 -207 5 -10 9
-26 9 -36 0 -10 4 -22 8 -28 4 -5 14 -27 21 -49 14 -47 21 -63 50 -128 11 -26
30 -66 40 -90 38 -86 72 -153 101 -202 17 -27 33 -57 37 -65 3 -8 19 -34 35
-57 15 -23 28 -46 28 -51 0 -5 9 -17 20 -27 11 -10 20 -24 20 -31 0 -7 4 -14
8 -16 5 -2 28 -32 52 -68 85 -125 295 -367 392 -451 69 -60 150 -131 158 -139
29 -30 342 -250 356 -250 3 0 20 -10 36 -22 34 -23 337 -178 350 -178 5 0 27
-9 51 -19 95 -44 364 -128 487 -153 275 -55 440 -72 680 -72 161 0 295 9 445
29 155 21 478 100 590 145 11 4 47 18 80 30 114 42 410 185 435 210 10 10 65
41 83 47 9 3 17 9 17 14 0 5 6 9 13 9 6 0 28 14 47 30 19 16 41 30 48 30 6 0
12 4 12 8 0 4 12 15 28 24 15 9 40 27 56 40 16 13 65 52 110 88 90 72 346 323
391 385 17 22 37 47 45 55 9 8 27 31 40 50 13 19 30 41 37 48 7 7 20 26 30 42
9 17 21 30 25 30 4 0 8 6 8 13 0 6 11 25 25 41 13 16 27 37 30 47 4 11 10 19
15 19 4 0 10 8 13 18 4 9 20 40 37 67 56 92 210 411 210 436 0 5 4 18 10 29 6
11 14 29 20 40 6 11 10 29 10 39 0 11 5 23 10 26 6 3 10 15 10 26 0 10 4 27 9
37 5 9 14 37 21 62 7 25 16 55 21 68 5 13 9 36 9 52 0 16 4 31 9 34 5 3 11 23
14 43 3 21 11 63 17 93 64 318 71 698 20 1040 -5 36 -12 85 -16 110 -3 25 -10
49 -15 54 -5 6 -9 23 -9 40 0 16 -4 43 -9 60 -5 17 -15 51 -21 76 -7 25 -16
53 -21 62 -5 10 -9 27 -9 37 0 11 -4 23 -10 26 -5 3 -10 17 -10 30 0 13 -4 27
-10 30 -5 3 -10 17 -10 30 0 13 -4 27 -10 30 -5 3 -10 15 -10 26 0 10 -4 27
-9 37 -5 9 -13 28 -19 42 -32 77 -159 331 -183 367 -16 23 -29 46 -29 52 0 6
-4 11 -10 11 -5 0 -10 7 -10 15 0 8 -5 15 -11 15 -7 0 -9 -8 -4 -22 4 -13 9
-40 12 -60 3 -21 9 -36 13 -33 4 3 10 -5 13 -16 4 -15 2 -19 -9 -15 -8 3 -14
1 -14 -4 0 -6 4 -10 9 -10 6 0 8 -38 6 -87 -4 -114 3 -163 21 -156 11 4 14 -5
14 -36 0 -23 -3 -41 -6 -41 -8 0 -30 24 -37 40 -3 8 -6 -5 -6 -30 -1 -32 2
-41 9 -30 8 13 11 12 24 -5 19 -25 19 -27 3 -50 -13 -17 -15 -17 -35 3 -22 22
-37 15 -26 -12 3 -9 14 -16 23 -16 14 0 17 -8 14 -42 -4 -56 -17 -67 -36 -30
-10 22 -12 33 -4 41 8 8 6 11 -5 11 -18 0 -28 -20 -28 -57 0 -20 3 -23 13 -15
10 9 16 4 24 -18 9 -23 8 -32 -2 -40 -8 -6 -11 -18 -8 -26 7 -19 -12 -18 -32
2 -11 11 -14 25 -10 42 5 22 4 23 -10 9 -19 -19 -19 -43 -1 -54 19 -11 21 -41
7 -80 -11 -28 -15 -31 -32 -20 -13 8 -19 23 -19 46 0 29 -2 32 -15 21 -19 -16
-19 -39 -1 -59 27 -31 28 -58 5 -80 -13 -12 -25 -21 -28 -21 -10 0 -31 52 -25
61 3 5 0 9 -6 9 -19 0 -22 -29 -6 -61 21 -42 20 -49 -9 -83 l-24 -28 -20 33
-20 33 24 26 c33 34 32 48 0 15 -14 -14 -30 -25 -35 -25 -15 0 -12 -34 5 -56
22 -29 18 -53 -16 -85 -38 -36 -48 -36 -41 -4 2 15 0 25 -7 25 -6 0 -11 7 -11
15 0 23 -13 18 -50 -20 -19 -19 -39 -35 -44 -35 -17 -1 -69 -50 -61 -58 4 -4
10 -1 12 6 8 20 27 13 41 -15 17 -38 15 -51 -9 -58 -12 -4 -31 -17 -42 -28
l-22 -22 -3 23 c-4 23 -16 29 -27 12 -4 -6 -2 -17 5 -25 9 -11 2 -20 -35 -45
-47 -32 -65 -32 -65 1 0 10 -4 19 -10 19 -20 0 -9 29 13 33 19 4 18 4 -6 6
-28 1 -52 -29 -29 -37 7 -2 12 -15 12 -28 0 -13 5 -24 11 -24 21 0 -13 -30
-57 -50 -52 -24 -58 -25 -50 -5 3 9 -1 18 -9 21 -7 3 -11 12 -8 19 9 24 -5 34
-32 22 -31 -15 -32 -25 -2 -29 16 -2 23 -11 25 -33 3 -27 -2 -33 -43 -53 -61
-30 -77 -29 -69 3 4 15 2 25 -5 25 -6 0 -11 5 -11 10 0 6 7 10 15 10 24 0 17
17 -8 22 -16 3 -28 -3 -40 -19 -17 -22 -17 -23 3 -23 13 0 20 -7 20 -19 0 -11
5 -23 10 -26 6 -3 10 -9 10 -13 0 -9 -49 -32 -67 -32 -7 0 -13 -4 -13 -10 0
-5 -13 -10 -30 -10 -16 0 -30 -4 -30 -10 0 -5 -9 -10 -19 -10 -11 0 -23 -4
-26 -10 -3 -5 -17 -10 -31 -10 -13 0 -24 -4 -24 -10 0 -5 -7 -10 -15 -10 -9 0
-15 9 -15 21 0 30 -24 18 -28 -14 -3 -21 -9 -27 -28 -27 -13 0 -24 -4 -24 -10
0 -5 -14 -10 -30 -10 -17 0 -39 -5 -50 -10 -11 -6 -29 -15 -40 -20 -11 -6 -33
-10 -49 -10 -17 0 -33 -4 -36 -10 -10 -17 -35 -11 -33 8 5 65 -15 93 -50 72
-15 -9 -14 -10 6 -16 16 -5 22 -14 22 -37 0 -36 -24 -56 -67 -57 -17 0 -35 -4
-38 -10 -13 -21 -23 -9 -29 34 -7 46 -20 58 -55 49 -29 -7 -26 -23 4 -23 22 0
25 -4 25 -35 0 -28 -4 -35 -19 -35 -11 0 -23 -4 -26 -10 -3 -5 -31 -10 -61
-10 -30 0 -54 -4 -54 -10 0 -6 -26 -10 -59 -10 -33 0 -63 -4 -66 -10 -13 -20
-25 -9 -25 23 0 45 -16 57 -75 56 -37 0 -45 -3 -30 -9 11 -5 34 -9 50 -9 29
-1 31 -3 27 -35 -4 -32 -6 -34 -55 -39 -29 -4 -62 -9 -74 -13 -20 -6 -22 -2
-25 42 l-3 47 -84 -2 c-60 -2 -87 1 -93 11 -8 10 -11 10 -15 1 -2 -7 -19 -14
-36 -14 l-32 -1 30 -7 c31 -6 40 -29 29 -79 -4 -22 -9 -23 -77 -20 -64 3 -72
5 -73 23 0 11 -1 57 -2 103 -1 52 -6 82 -13 82 -6 0 -8 -7 -4 -17 3 -10 3 -57
-1 -105 l-7 -88 -73 0 -73 0 -3 48 c-2 26 -7 47 -13 47 -5 0 -11 -21 -13 -47
l-3 -48 -70 0 c-47 0 -71 4 -73 13 -3 6 -8 26 -12 42 l-7 30 -9 -32 -9 -33
-75 0 c-58 0 -76 3 -80 15 -6 14 -8 13 -20 -2 -11 -15 -16 -16 -33 -5 -12 6
-50 12 -85 12 -36 0 -68 5 -71 10 -3 6 -31 10 -61 10 l-54 0 -2 38 c-1 20 -2
45 -1 55 0 13 -8 17 -36 16 -33 0 -34 -1 -13 -11 16 -8 22 -20 22 -45 0 -33 0
-33 -49 -33 -27 0 -51 4 -53 10 -1 5 -22 11 -46 13 -23 3 -45 7 -49 11 -3 3
-24 6 -45 6 -21 0 -38 5 -38 10 0 6 -7 10 -15 10 -8 0 -15 6 -15 14 0 25 -20
28 -28 5 -6 -15 -11 -18 -16 -11 -4 7 -20 12 -35 12 -43 0 -81 22 -81 48 0 27
-16 29 -22 4 -4 -15 -12 -18 -37 -14 -17 2 -34 8 -37 13 -3 5 -16 9 -29 9 -12
0 -26 7 -29 16 -4 10 -13 13 -26 9 -11 -4 -20 -2 -20 4 0 6 -13 11 -30 11 -16
0 -30 5 -30 10 0 6 -9 10 -20 10 -13 0 -18 5 -14 15 10 24 -7 41 -22 20 -12
-16 -15 -16 -61 1 -73 27 -85 61 -32 87 l32 15 -37 17 c-35 17 -65 13 -37 -5
9 -5 11 -14 6 -26 -4 -11 -9 -23 -9 -29 -1 -5 -3 -12 -6 -14 -7 -7 -70 22 -70
31 0 5 -9 8 -20 8 -21 0 -27 19 -11 35 5 6 11 30 15 54 l7 45 -21 -26 c-11
-14 -20 -37 -20 -51 0 -35 -17 -37 -67 -9 -47 26 -50 36 -28 78 16 32 22 80 6
55 -7 -11 -13 -11 -32 3 -31 21 -47 21 -22 -1 11 -10 23 -30 26 -44 6 -23 3
-28 -18 -33 -31 -8 -95 31 -95 58 0 13 -5 16 -16 12 -21 -8 -84 39 -84 63 0 9
9 27 20 39 l20 21 -29 20 c-16 12 -33 21 -38 21 -4 0 -3 -4 3 -8 15 -10 27
-62 14 -62 -5 0 -10 -7 -10 -15 0 -22 -11 -18 -47 15 -38 34 -41 55 -13 85 12
13 18 29 14 38 -8 21 -34 10 -34 -15 0 -11 -6 -26 -14 -34 -12 -12 -19 -10
-45 15 -32 30 -40 51 -20 51 6 0 8 7 5 16 -5 14 -1 16 24 10 l31 -6 -45 47
c-25 26 -48 44 -51 42 -3 -3 4 -15 15 -27 22 -23 26 -42 10 -42 -5 0 -10 -9
-10 -21 0 -11 -4 -19 -8 -17 -7 2 -73 76 -113 126 -11 13 -2 82 12 82 4 0 15
-10 23 -22 9 -12 19 -19 22 -15 4 4 -2 17 -14 30 -12 13 -22 27 -22 31 0 13
-31 39 -38 32 -3 -4 0 -11 7 -15 11 -7 11 -14 0 -40 -15 -35 -32 -36 -37 -3
-2 12 -8 22 -13 22 -18 0 -5 42 16 54 11 6 22 12 25 14 2 2 -2 7 -10 12 -11 7
-11 11 -1 24 11 14 11 16 -3 16 -9 0 -19 -8 -22 -17 -3 -10 -11 -28 -16 -40
-10 -21 -12 -21 -24 -5 -18 23 -17 72 1 96 16 21 20 46 7 46 -4 0 -13 -14 -21
-32 -13 -29 -15 -30 -28 -13 -15 22 -18 65 -3 65 6 0 10 8 10 17 0 15 2 14 15
-3 14 -19 14 -18 15 4 0 12 -4 22 -10 22 -5 0 -9 8 -8 18 2 33 -2 53 -11 48
-5 -3 -8 -17 -8 -30 0 -13 -8 -34 -17 -47 l-16 -23 0 36 c0 20 8 51 17 70 34
68 34 68 18 68 -8 0 -17 -11 -21 -25 -3 -13 -12 -29 -20 -36 -11 -9 -14 -6
-14 18 0 17 7 44 16 62 9 18 13 35 10 38 -3 4 -6 1 -6 -5 0 -18 -17 -14 -24 4
-3 9 3 31 14 49 25 40 27 64 5 45 -13 -10 -15 -9 -15 11 0 13 7 32 15 43 8 11
12 30 8 47 -6 31 12 42 20 12 2 -10 2 -4 0 14 -2 17 1 34 7 38 6 3 8 10 5 14
-2 5 7 37 20 71 14 35 23 65 21 67 -2 2 -15 -15 -30 -37z m5304 -266 c0 -14
-4 -22 -10 -19 -5 3 -10 17 -10 31 0 14 4 22 10 19 6 -3 10 -17 10 -31z m4
-70 c3 -9 6 -25 6 -36 0 -17 -3 -18 -15 -8 -16 13 -21 60 -6 60 5 0 12 -7 15
-16z m-424 -783 c0 -11 5 -23 10 -26 6 -3 10 -13 10 -21 0 -8 -4 -14 -10 -14
-5 0 -19 -9 -30 -20 -25 -25 -39 -25 -47 -2 -4 9 -11 20 -16 23 -11 8 52 77
71 78 6 1 12 -8 12 -18z m-1833 -694 l-3 -32 -73 -5 c-40 -3 -75 -3 -77 -1 -2
2 -4 19 -4 37 l0 33 73 3 c39 2 76 1 80 0 4 -2 6 -18 4 -35z"/>
<path d="M4780 4806 c0 -2 7 -9 15 -16 9 -7 15 -8 15 -2 0 5 -7 12 -15 16 -8
3 -15 4 -15 2z"/>
<path d="M4732 4738 c6 -18 25 -20 31 -3 5 10 0 15 -14 15 -12 0 -19 -5 -17
-12z"/>
<path d="M1546 4691 c-4 -7 -5 -15 -2 -18 9 -9 19 4 14 18 -4 11 -6 11 -12 0z"/>
<path d="M4580 4670 c0 -17 39 -55 47 -46 3 2 -7 17 -21 33 -18 19 -26 23 -26
13z"/>
<path d="M1616 4639 c-15 -14 -16 -19 -5 -19 8 0 20 9 27 20 15 25 3 25 -22
-1z"/>
<path d="M1700 4595 c-7 -14 -10 -28 -6 -32 4 -4 9 3 13 15 3 12 9 22 14 22 5
0 9 5 9 10 0 18 -17 10 -30 -15z"/>
<path d="M1773 4551 c-12 -16 -20 -31 -16 -34 6 -7 53 42 53 56 0 14 -15 5
-37 -22z"/>
<path d="M4535 4570 c3 -5 8 -10 11 -10 2 0 4 5 4 10 0 6 -5 10 -11 10 -5 0
-7 -4 -4 -10z"/>
<path d="M4440 4551 c0 -13 28 -33 41 -29 6 2 0 12 -15 21 -14 10 -26 13 -26
8z"/>
<path d="M4340 4536 c0 -11 30 -39 36 -34 2 3 -5 13 -16 23 -11 10 -20 15 -20
11z"/>
<path d="M1870 4514 c0 -8 5 -12 10 -9 6 3 10 10 10 16 0 5 -4 9 -10 9 -5 0
-10 -7 -10 -16z"/>
<path d="M1842 4489 c2 -7 10 -15 17 -17 8 -3 12 1 9 9 -2 7 -10 15 -17 17 -8
3 -12 -1 -9 -9z"/>
<path d="M1970 4490 c0 -5 5 -10 10 -10 6 0 10 5 10 10 0 6 -4 10 -10 10 -5 0
-10 -4 -10 -10z"/>
<path d="M4260 4470 c0 -5 5 -10 10 -10 6 0 10 5 10 10 0 6 -4 10 -10 10 -5 0
-10 -4 -10 -10z"/>
<path d="M4360 4469 c0 -5 5 -7 10 -4 6 3 10 8 10 11 0 2 -4 4 -10 4 -5 0 -10
-5 -10 -11z"/>
<path d="M4160 4445 c0 -8 5 -15 10 -15 6 0 10 7 10 15 0 8 -4 15 -10 15 -5 0
-10 -7 -10 -15z"/>
<path d="M1930 4430 c0 -5 6 -10 14 -10 8 0 18 5 21 10 3 6 -3 10 -14 10 -12
0 -21 -4 -21 -10z"/>
<path d="M2045 4431 c-6 -11 9 -23 19 -14 9 9 7 23 -3 23 -6 0 -12 -4 -16 -9z"/>
<path d="M4060 4410 c0 -5 5 -10 11 -10 5 0 7 5 4 10 -3 6 -8 10 -11 10 -2 0
-4 -4 -4 -10z"/>
<path d="M4180 4404 c0 -8 5 -12 10 -9 6 3 10 10 10 16 0 5 -4 9 -10 9 -5 0
-10 -7 -10 -16z"/>
<path d="M2145 4391 c-6 -11 9 -23 19 -14 9 9 7 23 -3 23 -6 0 -12 -4 -16 -9z"/>
<path d="M3966 4381 c-4 -7 -5 -15 -2 -18 9 -9 19 4 14 18 -4 11 -6 11 -12 0z"/>
<path d="M4080 4371 c0 -5 -8 -12 -17 -14 -14 -4 -14 -5 3 -6 12 0 27 6 34 14
10 12 10 15 -4 15 -9 0 -16 -4 -16 -9z"/>
<path d="M2130 4356 c0 -2 11 -6 25 -8 14 -3 25 -1 25 3 0 5 -11 9 -25 9 -14
0 -25 -2 -25 -4z"/>
<path d="M2241 4346 c-8 -9 -11 -19 -7 -23 9 -9 29 13 24 27 -2 8 -8 7 -17 -4z"/>
<path d="M2360 4345 c0 -8 5 -15 10 -15 6 0 10 7 10 15 0 8 -4 15 -10 15 -5 0
-10 -7 -10 -15z"/>
<path d="M3863 4323 c-4 -10 -11 -21 -17 -25 -6 -4 -1 -8 12 -8 17 0 22 6 22
25 0 29 -8 33 -17 8z"/>
<path d="M3980 4330 c0 -5 7 -10 15 -10 8 0 15 5 15 10 0 6 -7 10 -15 10 -8 0
-15 -4 -15 -10z"/>
<path d="M2298 4313 c7 -3 16 -2 19 1 4 3 -2 6 -13 5 -11 0 -14 -3 -6 -6z"/>
<path d="M3928 4313 c7 -3 16 -2 19 1 4 3 -2 6 -13 5 -11 0 -14 -3 -6 -6z"/>
<path d="M2350 4295 c0 -16 16 -20 24 -6 3 5 -1 11 -9 15 -9 3 -15 0 -15 -9z"/>
<path d="M2580 4280 c0 -18 5 -30 13 -30 9 0 12 10 9 30 -2 17 -8 30 -13 30
-5 0 -9 -13 -9 -30z"/>
<path d="M2455 4280 c-3 -5 3 -10 15 -10 12 0 18 5 15 10 -3 6 -10 10 -15 10
-5 0 -12 -4 -15 -10z"/>
<path d="M3410 4244 c0 -21 4 -33 10 -29 6 3 10 19 10 36 0 16 -4 29 -10 29
-5 0 -10 -16 -10 -36z"/>
<path d="M3530 4262 c0 -11 6 -22 14 -25 10 -4 12 0 9 14 -7 27 -23 34 -23 11z"/>
<path d="M3750 4270 c20 -13 40 -13 40 0 0 6 -12 10 -27 10 -22 0 -25 -2 -13
-10z"/>
<path d="M3639 4259 c-10 -6 -7 -9 14 -9 29 0 35 5 14 13 -8 3 -20 1 -28 -4z"/>
<path d="M5651 4204 c0 -11 3 -14 6 -6 3 7 2 16 -1 19 -3 4 -6 -2 -5 -13z"/>
<path d="M579 4193 c-13 -16 -12 -17 4 -4 9 7 17 15 17 17 0 8 -8 3 -21 -13z"/>
<path d="M5630 3989 c0 -5 5 -7 10 -4 6 3 10 8 10 11 0 2 -4 4 -10 4 -5 0 -10
-5 -10 -11z"/>
<path d="M5571 3904 c0 -11 3 -14 6 -6 3 7 2 16 -1 19 -3 4 -6 -2 -5 -13z"/>
<path d="M692 3868 c-7 -7 -12 -18 -12 -25 0 -7 -4 -13 -10 -13 -5 0 -10 -9
-10 -20 0 -11 5 -20 10 -20 6 0 10 7 10 15 0 9 10 19 22 24 15 5 18 10 9 15
-9 6 -9 11 0 22 14 17 -2 19 -19 2z"/>
<path d="M785 3800 c-3 -5 -1 -10 4 -10 6 0 11 5 11 10 0 6 -2 10 -4 10 -3 0
-8 -4 -11 -10z"/>
<path d="M1095 3630 c3 -5 8 -10 11 -10 2 0 4 5 4 10 0 6 -5 10 -11 10 -5 0
-7 -4 -4 -10z"/>
<path d="M5125 3620 c-3 -5 -1 -10 4 -10 6 0 11 5 11 10 0 6 -2 10 -4 10 -3 0
-8 -4 -11 -10z"/>
<path d="M1052 3548 c-14 -14 -16 -58 -3 -58 8 0 25 60 18 66 -2 2 -9 -2 -15
-8z"/>
<path d="M1201 3534 c0 -11 3 -14 6 -6 3 7 2 16 -1 19 -3 4 -6 -2 -5 -13z"/>
<path d="M5158 3530 c-15 -17 -15 -18 5 -24 25 -6 24 -7 29 18 4 25 -13 29
-34 6z"/>
<path d="M1076 3515 c4 -8 10 -12 15 -9 11 6 2 24 -11 24 -5 0 -7 -7 -4 -15z"/>
<path d="M5115 3500 c-3 -5 -1 -10 4 -10 6 0 11 5 11 10 0 6 -2 10 -4 10 -3 0
-8 -4 -11 -10z"/>
<path d="M4900 3490 c-8 -5 -12 -11 -10 -14 3 -2 14 2 24 10 22 15 10 19 -14
4z"/>
<path d="M1321 3464 c0 -11 3 -14 6 -6 3 7 2 16 -1 19 -3 4 -6 -2 -5 -13z"/>
<path d="M5015 3440 c-3 -5 -1 -10 4 -10 6 0 11 5 11 10 0 6 -2 10 -4 10 -3 0
-8 -4 -11 -10z"/>
<path d="M1213 3433 c9 -2 17 -9 17 -14 0 -5 7 -9 15 -9 23 0 18 17 -7 24 -13
3 -27 5 -33 5 -5 -1 -2 -3 8 -6z"/>
<path d="M1460 3420 c0 -5 5 -10 10 -10 6 0 10 5 10 10 0 6 -4 10 -10 10 -5 0
-10 -4 -10 -10z"/>
<path d="M4975 3420 c-3 -5 1 -10 10 -10 9 0 13 5 10 10 -3 6 -8 10 -10 10 -2
0 -7 -4 -10 -10z"/>
<path d="M4775 3410 c3 -5 8 -10 11 -10 2 0 4 5 4 10 0 6 -5 10 -11 10 -5 0
-7 -4 -4 -10z"/>
<path d="M1310 3380 c0 -5 7 -10 16 -10 8 0 12 5 9 10 -3 6 -10 10 -16 10 -5
0 -9 -4 -9 -10z"/>
<path d="M1350 3360 c0 -5 5 -10 10 -10 6 0 10 5 10 10 0 6 -4 10 -10 10 -5 0
-10 -4 -10 -10z"/>
<path d="M4620 3360 c0 -5 7 -10 15 -10 8 0 15 5 15 10 0 6 -7 10 -15 10 -8 0
-15 -4 -15 -10z"/>
<path d="M4865 3360 c-3 -5 1 -10 9 -10 9 0 16 5 16 10 0 6 -4 10 -9 10 -6 0
-13 -4 -16 -10z"/>
<path d="M1725 3320 c3 -5 8 -10 11 -10 2 0 4 5 4 10 0 6 -5 10 -11 10 -5 0
-7 -4 -4 -10z"/>
<path d="M4660 3293 c0 -14 -6 -23 -16 -23 -9 0 -14 -6 -11 -12 2 -7 11 -12
21 -10 10 2 16 -4 16 -18 0 -11 5 -20 10 -20 17 0 23 29 10 45 -10 12 -9 15 4
15 9 0 16 5 16 11 0 6 -7 9 -15 5 -8 -3 -19 2 -24 12 -9 15 -10 14 -11 -5z"/>
<path d="M4740 3300 c0 -5 5 -10 10 -10 6 0 10 5 10 10 0 6 -4 10 -10 10 -5 0
-10 -4 -10 -10z"/>
<path d="M1520 3280 c0 -5 7 -10 15 -10 8 0 15 -7 15 -16 0 -11 5 -14 16 -10
9 3 22 6 30 6 8 0 14 5 14 10 0 6 -11 10 -25 10 -14 0 -25 5 -25 10 0 6 -9 10
-20 10 -11 0 -20 -4 -20 -10z"/>
<path d="M1620 3240 c0 -5 9 -10 20 -10 11 0 20 5 20 10 0 6 -9 10 -20 10 -11
0 -20 -4 -20 -10z"/>
<path d="M4580 3240 c0 -5 7 -10 15 -10 8 0 15 5 15 10 0 6 -7 10 -15 10 -8 0
-15 -4 -15 -10z"/>
<path d="M4520 3231 c0 -5 -3 -16 -6 -25 -8 -20 5 -20 31 0 17 13 18 16 5 24
-19 12 -30 12 -30 1z"/>
<path d="M1 3214 c0 -11 3 -14 6 -6 3 7 2 16 -1 19 -3 4 -6 -2 -5 -13z"/>
<path d="M1670 3221 c0 -6 5 -13 10 -16 6 -3 10 -18 10 -31 0 -14 5 -24 11
-22 6 2 10 7 10 11 -1 4 -1 21 -1 37 0 23 -4 30 -20 30 -11 0 -20 -4 -20 -9z"/>
<path d="M4361 3204 c0 -11 3 -14 6 -6 3 7 2 16 -1 19 -3 4 -6 -2 -5 -13z"/>
<path d="M1740 3200 c0 -5 7 -10 15 -10 8 0 15 5 15 10 0 6 -7 10 -15 10 -8 0
-15 -4 -15 -10z"/>
<path d="M2128 3203 c7 -3 16 -2 19 1 4 3 -2 6 -13 5 -11 0 -14 -3 -6 -6z"/>
<path d="M4470 3200 c0 -5 7 -10 15 -10 8 0 15 5 15 10 0 6 -7 10 -15 10 -8 0
-15 -4 -15 -10z"/>
<path d="M1790 3179 c0 -7 10 -9 25 -7 14 3 25 2 25 -1 1 -17 19 -31 33 -25
26 9 20 21 -14 33 -41 14 -69 14 -69 0z"/>
<path d="M2228 3183 c7 -3 16 -2 19 1 4 3 -2 6 -13 5 -11 0 -14 -3 -6 -6z"/>
<path d="M3998 3183 c7 -3 16 -2 19 1 4 3 -2 6 -13 5 -11 0 -14 -3 -6 -6z"/>
<path d="M4200 3174 c0 -8 5 -12 10 -9 6 3 10 10 10 16 0 5 -4 9 -10 9 -5 0
-10 -7 -10 -16z"/>
<path d="M4400 3180 c0 -5 9 -10 20 -10 11 0 20 5 20 10 0 6 -9 10 -20 10 -11
0 -20 -4 -20 -10z"/>
<path d="M4353 3173 c-20 -7 -15 -23 6 -23 14 0 17 -6 14 -24 -6 -28 14 -45
24 -20 7 19 -7 66 -22 70 -5 1 -16 0 -22 -3z"/>
<path d="M1925 3140 c3 -5 17 -10 31 -10 13 0 24 5 24 10 0 6 -14 10 -31 10
-17 0 -28 -4 -24 -10z"/>
<path d="M2003 3135 c-9 -10 -9 -17 0 -30 12 -15 14 -15 29 2 16 18 16 19 0
29 -13 8 -20 8 -29 -1z"/>
<path d="M2448 3143 c6 -2 18 -2 25 0 6 3 1 5 -13 5 -14 0 -19 -2 -12 -5z"/>
<path d="M3768 3143 c7 -3 16 -2 19 1 4 3 -2 6 -13 5 -11 0 -14 -3 -6 -6z"/>
<path d="M4260 3140 c0 -5 11 -10 25 -10 14 0 25 5 25 10 0 6 -11 10 -25 10
-14 0 -25 -4 -25 -10z"/>
<path d="M4045 3131 c-3 -5 -1 -12 5 -16 5 -3 10 1 10 9 0 18 -6 21 -15 7z"/>
<path d="M2351 3114 c0 -11 3 -14 6 -6 3 7 2 16 -1 19 -3 4 -6 -2 -5 -13z"/>
<path d="M2681 3083 c-1 -24 1 -43 3 -43 8 0 12 48 5 66 -5 13 -8 7 -8 -23z"/>
<path d="M2855 3109 c-9 -13 12 -19 36 -11 23 9 23 9 -4 14 -15 3 -30 2 -32
-3z"/>
<path d="M2085 3100 c3 -5 17 -10 31 -10 13 0 24 5 24 10 0 6 -14 10 -31 10
-17 0 -28 -4 -24 -10z"/>
<path d="M2803 3103 c9 -2 23 -2 30 0 6 3 -1 5 -18 5 -16 0 -22 -2 -12 -5z"/>
<path d="M3318 3103 c6 -2 18 -2 25 0 6 3 1 5 -13 5 -14 0 -19 -2 -12 -5z"/>
<path d="M3368 3098 c9 -9 15 -9 24 0 9 9 7 12 -12 12 -19 0 -21 -3 -12 -12z"/>
<path d="M4100 3100 c0 -5 14 -10 30 -10 17 0 30 5 30 10 0 6 -13 10 -30 10
-16 0 -30 -4 -30 -10z"/>
<path d="M2160 3072 c0 -37 19 -53 27 -23 3 12 13 21 24 21 11 0 19 5 19 10 0
6 -6 10 -12 10 -7 0 -23 3 -35 6 -20 6 -23 3 -23 -24z"/>
<path d="M3884 3066 c-8 -21 -1 -61 11 -61 6 0 11 10 13 22 2 13 13 24 29 28
30 7 28 10 -15 18 -23 5 -34 3 -38 -7z"/>
<path d="M2500 3013 c0 -55 16 -74 22 -25 3 23 7 27 30 24 15 -2 35 1 45 7 14
8 9 10 -26 11 -30 0 -48 6 -57 18 -12 15 -13 10 -14 -35z"/>
<path d="M2380 3040 c0 -5 20 -10 45 -10 25 0 45 5 45 10 0 6 -20 10 -45 10
-25 0 -45 -4 -45 -10z"/>
<path d="M3765 3040 c3 -5 24 -10 45 -10 21 0 42 5 45 10 4 6 -13 10 -45 10
-32 0 -49 -4 -45 -10z"/>
<path d="M2680 3006 c0 -15 4 -25 9 -22 4 3 48 6 97 7 135 3 157 17 29 18 -72
1 -115 5 -123 13 -9 9 -12 6 -12 -16z"/>
<path d="M0 2375 c0 -83 4 -135 10 -135 6 0 10 52 10 135 0 83 -4 135 -10 135
-6 0 -10 -52 -10 -135z"/>
</g>
</svg>
